<?xml version="1.0" encoding="UTF-8" standalone="no"?>
<!-- Created with Inkscape (http://www.inkscape.org/) -->

<svg
   width="263.13251mm"
   height="236.4933mm"
   viewBox="0 0 263.13251 236.4933"
   version="1.1"
   id="svg1"
   xml:space="preserve"
   inkscape:version="1.3.2 (091e20e, 2023-11-25, custom)"
   sodipodi:docname="tiburon.svg"
   xmlns:inkscape="http://www.inkscape.org/namespaces/inkscape"
   xmlns:sodipodi="http://sodipodi.sourceforge.net/DTD/sodipodi-0.dtd"
   xmlns="http://www.w3.org/2000/svg"
   xmlns:svg="http://www.w3.org/2000/svg"><sodipodi:namedview
     id="namedview1"
     pagecolor="#ffffff"
     bordercolor="#000000"
     borderopacity="0.25"
     inkscape:showpageshadow="2"
     inkscape:pageopacity="0.0"
     inkscape:pagecheckerboard="0"
     inkscape:deskcolor="#d1d1d1"
     inkscape:document-units="mm"
     inkscape:zoom="1.0128998"
     inkscape:cx="452.16713"
     inkscape:cy="450.68624"
     inkscape:window-width="2560"
     inkscape:window-height="1351"
     inkscape:window-x="-9"
     inkscape:window-y="1431"
     inkscape:window-maximized="1"
     inkscape:current-layer="layer1" /><defs
     id="defs1" /><g
     inkscape:label="Capa 1"
     inkscape:groupmode="layer"
     id="layer1"
     transform="translate(14.5198,-8.4336413)"><path
       style="fill:#5d4469;fill-opacity:1"
       d="m 61.849879,244.61442 c -0.461484,-0.20941 -0.96691,-0.61963 -1.123167,-0.9116 -0.201202,-0.37595 -2.667977,-18.35967 -2.667977,-19.45055 0,-0.0576 -1.16086,-0.24596 -2.579688,-0.41867 -9.045046,-1.101 -26.342937,-4.27638 -39.076365,-7.17327 -3.774841,-0.85879 -6.8857826,-1.53447 -6.9132049,-1.50151 -0.027422,0.0329 -0.7926827,3.63179 -1.7005789,7.99741 -2.2702414,10.91647 -1.8624569,10.2975 -6.6798477,10.13926 -2.6636621,-0.0875 -2.8866115,-0.13758 -3.5455685,-0.79654 l -0.7031733,-0.70317 -0.345479,-8.15623 c -0.1900134,-4.48593 -0.3506794,-9.08504 -0.3570354,-10.22025 l -0.011556,-2.06403 -0.9921875,-0.40041 c -6.2953828,-2.54064 -8.9664408,-6.5453 -9.5579828,-14.33009 -1.026921,-13.51441 4.6980189,-19.32573 20.1412164,-20.44514 2.1463776,-0.15558 4.0232431,-0.20825 4.1708122,-0.11705 0.3465054,0.21415 2.2429814,-3.76256 2.7627324,-5.79317 2.742181,-10.71337 -1.740592,-23.57716 -12.11611908,-34.76848 -5.77476292,-6.22881 -5.06113302,-9.05435 2.28528028,-9.04834 14.3375198,0.0117 25.5824268,9.14917 32.2332108,26.19219 1.587567,4.06823 1.521512,3.96875 2.635188,3.96875 6.715226,0 21.10906,-5.56028 29.31082,-11.32265 l 1.684433,-1.18344 -0.825584,-0.64612 c -1.370828,-1.07283 -2.214334,-2.54651 -7.882019,-13.77061 -6.461715,-12.79656 -5.85192,-11.75241 -7.125769,-12.20145 -8.812991,-3.10658 -14.409513,-13.03863 -10.669814,-18.935524 0.766093,-1.208003 0.779088,-1.283997 0.496768,-2.905197 -0.85151,-4.889732 3.313292,-7.715278 8.466574,-5.744018 1.923227,0.735683 2.016581,1.165067 -1.324548,-6.092287 -5.386791,-11.700789 -5.242014,-11.263958 -4.149786,-12.521004 2.499618,-2.876809 3.589834,-1.441518 9.852956,12.97161 l 1.615202,3.717015 0.761131,-0.460383 c 3.476583,-2.102872 8.527179,1.413339 10.207891,7.106705 1.888158,6.396083 16.795446,3.903215 25.182858,-4.211194 l 1.996647,-1.931659 0.147643,-1.719791 c 0.21993,-2.56182 1.085209,-5.083302 2.07723,-6.053186 C 100.09771,78.200933 98.576951,58.175866 95.211771,50.17092 91.279198,40.816285 82.803807,37.862841 69.714803,41.285919 60.458078,43.706767 54.179579,42.141314 49.719737,36.300436 40.917973,24.773115 49.475876,9.4031562 64.709794,9.3783555 l 3.343767,-0.00544 2.482415,1.2567715 c 2.999202,1.518404 2.63876,1.510868 10.468976,0.218875 22.443548,-3.7032088 39.379998,-3.2174232 67.737248,1.942897 4.3306,0.788063 8.36989,1.510924 8.97619,1.606357 0.85362,0.134362 1.62976,-0.0057 3.43958,-0.620914 22.05993,-7.4982746 39.18606,22.328779 18.87367,32.870601 -5.53408,2.872106 -9.48694,2.689034 -19.04999,-0.882278 -1.96454,-0.733653 -3.65371,-1.334162 -3.75372,-1.334466 -0.10002,-3.04e-4 0.15402,0.743587 0.56452,1.653092 2.26704,5.022853 5.83685,15.361845 6.6271,19.193617 0.38627,1.872934 0.35166,1.843514 3.30043,2.80572 2.27853,0.743504 1.50626,0.693009 22.63041,1.479674 39.07262,1.455067 52.10361,5.729416 56.87523,18.655883 4.54237,12.305405 -2.65543,28.341175 -13.10694,29.200595 l -2.0449,0.16815 -0.37071,1.05833 c -0.35133,1.00299 -1.56519,5.51017 -6.04177,22.43361 -1.06966,4.04379 -3.86278,15.35473 -6.20693,25.13541 -7.69641,32.11239 -7.70123,32.13112 -9.01229,35.04655 -1.41839,3.15405 -4.25388,6.08645 -6.76246,6.99357 l -0.89381,0.3232 -0.0185,7.02446 c -0.0329,12.5056 -0.13259,13.56221 -1.3383,14.18571 -1.10636,0.57212 -5.48346,1.07212 -6.59496,0.75335 -1.50133,-0.43058 -1.7765,-1.14275 -4.19772,-10.86439 -2.1065,-8.45791 -2.34465,-9.22804 -2.87767,-9.30546 -0.31961,-0.0464 -3.94512,0.33989 -8.05668,0.85847 -19.71247,2.48628 -48.67602,5.90927 -59.46619,7.02787 -5.1051,0.52923 -7.66651,0.81268 -16.66874,1.84459 -2.54662,0.29191 -7.963962,0.8871 -12.038546,1.32264 -4.074583,0.43554 -10.164843,1.12123 -13.533911,1.52375 l -6.125579,0.73187 -0.294796,1.85427 c -0.162138,1.01985 -0.760306,5.36662 -1.329261,9.65949 -1.171266,8.83739 -1.113335,8.59878 -2.230285,9.18615 -1.139451,0.5992 -5.033829,0.7467 -6.164813,0.23349 z m 4.410938,-2.80506 c 0.291042,-0.29104 0.529167,-0.69644 0.529167,-0.90088 0,-0.20444 0.170842,-1.90108 0.379649,-3.77031 0.208807,-1.86923 0.458622,-4.14274 0.555145,-5.05225 l 0.175497,-1.65364 h -3.080676 -3.080676 l 0.141938,0.85989 c 0.07807,0.47294 0.382372,3.04619 0.676235,5.71832 0.293862,2.67213 0.599599,4.96408 0.679415,5.09323 0.291256,0.47126 2.470825,0.25912 3.024306,-0.29436 z M 3.1545159,230.10155 c 0.4909144,-2.09958 1.1415227,-9.8816 0.8500927,-10.16809 -0.2897593,-0.28484 -4.2109288,-1.9366 -4.59736916,-1.9366 -0.21863985,0 0.0702177,12.04603 0.29768314,12.41407 0.37666394,0.60946 3.29597272,0.34763 3.44959332,-0.30938 z m 195.7286941,-2.32902 0.99218,-0.27554 v -5.28754 c 0,-6.13467 0.13896,-5.87035 -2.64214,-5.02562 l -1.85577,0.56368 0.005,1.24915 c 0.003,0.68704 0.17912,2.8565 0.39161,4.82103 0.2125,1.96453 0.38872,3.72071 0.39162,3.90261 0.006,0.40582 1.35096,0.43166 2.71724,0.0522 z M 60.899848,220.1846 c -0.47513,-2.24178 -0.371682,-12.36562 0.147563,-14.44114 0.639639,-2.55675 0.606458,-2.70705 -0.938156,-4.24932 -2.72768,-2.72355 -8.920854,-4.43974 -34.065102,-9.4398 -8.081815,-1.6071 -8.756876,-1.64742 -11.377083,-0.67952 -8.3254367,3.07543 -14.81285531,2.09583 -14.50285164,-2.18993 l 0.11211109,-1.54992 -4.90931655,-0.99502 c -2.700124,-0.54727 -5.0587935,-1.05118 -5.2414876,-1.1198 -1.0248873,-0.38495 -2.2841403,5.75713 -2.1018123,10.25171 0.265997,6.55714 2.0393548,9.89565 6.4415348,12.1268 6.27215899,3.17889 46.1738672,11.53832 64.3872362,13.48916 2.457794,0.26325 2.369208,0.31531 2.047364,-1.20322 z m 8.309498,0.98191 c 1.507007,-0.14846 5.121263,-0.56208 8.031679,-0.91916 2.910417,-0.35707 9.875573,-1.13495 15.478124,-1.72861 14.675841,-1.55509 38.369211,-4.20226 59.134371,-6.60684 8.09795,-0.93774 19.397,-2.30755 29.69948,-3.60055 l 10.12031,-1.27013 0.0328,-6.89145 c 0.0496,-10.41713 -0.0871,-11.42217 -1.91533,-14.07941 l -0.78875,-1.14642 -1.90552,-3e-5 c -1.04804,-2e-5 -3.87005,0.23707 -6.27115,0.52685 -2.40109,0.28979 -8.05656,0.94688 -12.5677,1.46021 -4.51115,0.51333 -13.32177,1.52754 -19.57917,2.25379 -15.66948,1.81865 -17.52785,2.02832 -23.41562,2.64186 -2.83766,0.2957 -11.2911,1.18532 -18.78542,1.97694 -7.494321,0.79161 -17.852757,1.86369 -23.018747,2.38239 -14.122429,1.41801 -14.902392,1.59024 -16.98565,3.75068 -2.802979,2.90682 -3.918814,9.9727 -3.032785,19.20471 l 0.222189,2.3151 h 1.403423 c 0.771883,0 2.636429,-0.12147 4.143436,-0.26993 z M 202.52123,205.83668 c 5.3001,-1.59289 5.20741,-1.32089 16.14269,-47.37107 4.49259,-18.919 7.87106,-32.00682 10.03686,-38.88165 0.43343,-1.37579 0.76276,-2.51841 0.73185,-2.53915 -0.0309,-0.0207 -0.69112,-0.37789 -1.46714,-0.79367 -7.23697,-3.8774 -6.01096,-20.314107 1.78131,-23.881527 5.77558,-2.64415 10.88856,1.029668 10.97754,7.887667 0.0701,5.39985 -5.37252,10.02347 -8.80025,7.47606 -1.8643,-1.3855 -0.44362,-3.61396 1.62274,-2.5454 3.65586,1.89052 6.07365,-6.324398 2.87168,-9.757077 -4.44568,-4.766003 -12.05512,3.45767 -10.6109,11.467407 2.15481,11.95067 15.49976,9.02013 19.09784,-4.19386 4.37931,-16.083129 -8.45946,-27.819468 -20.21169,-18.476167 -7.49161,5.956004 -11.4987,15.069665 -18.44815,41.958207 -0.88385,3.41974 -2.26609,8.59896 -3.07165,11.50937 -2.12143,7.66454 -4.57456,17.31013 -6.86366,26.9875 -1.10149,4.65667 -2.61564,10.9507 -3.36478,13.98674 -1.19755,4.8533 -1.31868,5.58835 -1.00281,6.08541 2.25042,3.54136 2.37643,4.2796 2.37643,13.92203 v 8.08612 l 3.63802,-0.32431 c 2.00092,-0.17837 4.05474,-0.44955 4.56407,-0.60263 z M 64.773177,197.96865 c 2.28733,-2.53836 3.907894,-2.92316 18.685556,-4.43683 5.020469,-0.51425 11.866562,-1.23033 15.213541,-1.5913 3.346976,-0.36097 11.800416,-1.25646 18.785416,-1.98997 6.985,-0.73352 16.92672,-1.81236 22.09271,-2.39743 13.64081,-1.54486 30.94777,-3.52189 39.15833,-4.47318 2.54661,-0.29505 5.40411,-0.53928 6.35,-0.54273 l 1.71979,-0.006 -0.66146,-0.5416 c -3.94575,-3.23076 -8.578,-4.89174 -20.24062,-7.25766 -8.78098,-1.78134 -8.26577,-1.78044 -12.89056,-0.0223 -35.51675,13.50163 -71.153881,16.85805 -103.790687,9.77533 -9.559094,-2.07448 -14.186305,-1.56573 -24.064022,2.64578 -2.752562,1.17359 -3.29899,1.49041 -2.778125,1.61075 0.356619,0.0824 4.458399,0.93084 9.115065,1.88544 22.859123,4.68603 26.85594,5.8446 29.897915,8.66661 l 1.322917,1.22725 0.529166,-0.70668 c 0.291042,-0.38867 0.990822,-1.21899 1.555068,-1.84516 z M 9.9173196,189.57768 c 7.5490914,-1.7126 16.6068544,-6.37539 23.0059994,-11.84313 3.621136,-3.09408 3.628589,-3.09576 6.908687,-1.5632 29.343901,13.7104 82.391054,10.67897 104.583204,-5.97651 5.26374,-3.9505 5.32635,-4.08863 3.15968,-6.97093 -3.76287,-5.00573 -9.2235,-7.14433 -15.51919,-6.07796 -6.84591,1.15958 -12.91115,1 -17.50217,-0.46047 -1.98974,-0.63297 -2.4881,-0.6776 -7.94376,-0.71137 -8.4403,-0.0522 -12.734148,-1.09377 -21.298954,-5.1664 -4.828581,-2.29603 -6.487308,-2.91092 -10.427671,-3.86557 -3.724173,-0.90227 -3.699781,-0.90658 -7.3685,1.30238 -10.146056,6.10901 -21.545079,10.29125 -29.780495,10.92632 -2.78365,0.21466 -3.111619,-0.0849 -4.68198,-4.2771 -6.427364,-17.15816 -16.494982,-25.80905 -30.0198247,-25.7954 -4.303438,0.004 -4.3420358,0.58132 -0.3303999,4.93899 16.6753166,18.11367 17.6047536,36.81908 2.5849265,52.02304 -3.9821829,4.031 -2.5222505,5.13997 4.6304477,3.51731 z M 85.09915,177.99186 c -0.737179,-0.73718 -0.256688,-2.06375 0.747501,-2.06375 1.139791,0 1.580832,0.26207 1.580832,0.93935 0,1.06204 -1.61215,1.84058 -2.328333,1.1244 z m 17.32139,-0.12347 c -0.097,-0.097 -0.17639,-0.45675 -0.17639,-0.79942 0,-1.16627 2.41068,-1.53236 2.83357,-0.4303 0.32368,0.84349 -1.97815,1.90876 -2.65718,1.22972 z m 17.33902,-2.25778 c -0.83871,-0.83871 -0.0524,-1.8827 1.31887,-1.75107 0.69967,0.0672 0.89565,0.21505 0.96845,0.73083 0.15251,1.08045 -1.4931,1.81446 -2.28732,1.02024 z m -10.84791,-4.7625 c -0.74671,-0.74671 -0.0231,-2.32833 1.06528,-2.32833 1.63846,0 2.21728,0.8629 1.38034,2.05779 -0.45923,0.65565 -1.90102,0.81515 -2.44562,0.27054 z m 22.31762,-3.21197 c -0.35895,-0.26247 -0.44174,-0.54185 -0.31282,-1.05554 0.31673,-1.26194 2.30542,-1.25797 2.49515,0.005 0.14035,0.93422 -1.35619,1.65465 -2.18233,1.05056 z M 4.6921506,183.05258 c 1.2319967,-1.32029 2.6178488,-2.92669 3.0796712,-3.56976 l 0.8396772,-1.16923 -2.0654433,0.15433 c -7.46317332,0.55764 -17.9685257,4.16719 -14.5670052,5.00509 1.1789526,0.29041 9.6011613,1.93258 10.0321257,1.95607 0.2425392,0.0132 1.4489777,-1.05621 2.6809744,-2.3765 z M 190.45045,178.17707 c 0.36648,-1.45521 1.2644,-5.34978 1.99538,-8.6546 2.74257,-12.39937 6.57944,-27.7434 9.54631,-38.17665 0.70348,-2.47385 2.07069,-7.59354 3.03824,-11.37708 7.13889,-27.916171 13.46356,-38.347087 25.32959,-41.774596 l 2.19146,-0.633005 -2.30605,-0.703721 c -4.74417,-1.44774 -11.46671,-2.502465 -20.31582,-3.18743 -8.31848,-0.643892 -27.30139,-1.723121 -30.30852,-1.723121 h -2.77011 l 3.33513,2.248423 c 11.46682,7.730495 18.46035,16.37113 21.12826,26.10436 1.23102,4.49104 1.13787,4.6355 -3.62684,5.6247 -14.82957,3.07876 -21.27122,9.84366 -24.30521,25.5249 -3.0573,15.80172 -7.6972,29.05116 -13.1083,37.43127 -1.42101,2.20072 -1.88204,1.83906 3.77219,2.95909 13.42476,2.65927 19.75014,4.81476 23.92298,8.15221 1.75016,1.39977 1.65407,1.47005 2.48131,-1.81475 z m -14.74033,-10.62743 c -0.37155,-0.37154 -0.15056,-2.53064 0.45381,-4.43379 l 0.63019,-1.98451 -0.62764,-0.41125 c -0.58204,-0.38136 -0.7452,-0.36178 -2.24496,0.26946 -3.5652,1.50058 -4.57117,-0.48676 -1.03665,-2.04793 l 1.85511,-0.81938 v -1.50281 -1.50281 l -1.10371,-0.50832 c -1.33962,-0.61696 -1.79338,-1.24003 -1.38179,-1.89737 0.40502,-0.64687 1.58915,-0.72195 2.79687,-0.17734 0.99551,0.44891 1.05557,0.44561 2.2738,-0.12484 l 1.25129,-0.58593 v -2.47096 c 0,-2.62663 0.39618,-3.58625 1.4806,-3.58625 0.76392,0 0.88485,0.50688 0.82061,3.43959 l -0.0608,2.77812 1.0856,0.74144 c 1.0355,0.70723 1.14863,0.72741 2.45169,0.43743 3.80689,-0.8472 4.59754,1.35403 0.90368,2.5159 -1.43155,0.45027 -1.46059,0.47926 -1.47428,1.47168 -0.008,0.5568 -0.20834,1.38823 -0.44591,1.84762 -0.4275,0.82671 -0.42217,0.84779 0.52096,2.05834 1.10734,1.42132 1.39122,2.28485 0.93275,2.83728 -0.65074,0.7841 -1.52277,0.46283 -2.5717,-0.94746 -0.88636,-1.1917 -1.08195,-1.32417 -1.758,-1.19062 -0.41837,0.0827 -0.97087,0.15027 -1.22778,0.15027 -0.36246,0 -0.59527,0.48905 -1.03911,2.18281 -0.92678,3.53668 -1.54634,4.39988 -2.48458,3.46163 z m 5.13563,-9.06368 c 0.87319,-0.87319 0.932,-1.24524 0.39862,-2.52181 -1.07455,-2.57175 -4.40968,-1.76124 -4.04171,0.98223 0.29005,2.16246 2.20918,2.9735 3.64309,1.53958 z m 2.63479,-20.90504 c -0.41924,-0.78335 -0.33364,-1.66138 0.38118,-3.90991 l 0.65507,-2.0606 -0.72122,-0.69848 c -0.70386,-0.68167 -0.76391,-0.6918 -2.49558,-0.42101 -2.0447,0.31973 -2.59126,0.0773 -2.59126,-1.14943 0,-0.78674 1.02395,-1.29198 2.64583,-1.30554 1.64675,-0.0138 2.19984,-1.98103 0.74314,-2.64325 -0.9196,-0.41805 -1.58617,-1.4158 -1.35256,-2.02457 0.26653,-0.69457 1.34959,-0.70664 2.499,-0.0278 l 1.10014,0.6497 1.38608,-0.54556 1.38608,-0.54556 0.30093,-1.82222 c 0.47796,-2.89414 1.59217,-4.46204 2.73592,-3.84992 0.57731,0.30896 0.56742,0.417 -0.34438,3.76366 l -0.5667,2.07999 0.97317,0.99661 c 0.96044,0.98358 0.99483,0.99489 2.62703,0.86387 3.74221,-0.30039 4.06057,2.03672 0.33705,2.47434 -1.42237,0.16717 -1.46449,0.19599 -1.638,1.12092 -0.098,0.52213 -0.34987,1.2815 -0.55981,1.68748 -0.365,0.70584 -0.33506,0.79992 0.68414,2.14985 1.11995,1.48335 1.34268,2.5243 0.66114,3.08992 -0.61303,0.50877 -1.51839,-0.0256 -2.68028,-1.58187 -0.92474,-1.23865 -1.07807,-1.33505 -2.12347,-1.33505 h -1.12675 l -0.38263,1.38906 c -0.21045,0.76398 -0.46255,1.86531 -0.56024,2.4474 -0.28555,1.70157 -1.3576,2.35795 -1.97302,1.20801 z m 5.32767,-8.12819 c 1.31971,-1.19432 0.0973,-3.90128 -1.76182,-3.90128 -1.20303,0 -1.72308,0.59542 -1.72308,1.9728 0,1.97777 2.12875,3.15578 3.4849,1.92848 z m -30.66131,29.9891 c 9.0377,-13.44278 13.47621,-38.80588 10.79711,-61.698089 -0.34061,-2.910417 -0.65248,-5.329612 -0.69303,-5.37599 -0.0406,-0.04638 -1.06269,0.581484 -2.27141,1.395248 -18.00365,12.120901 -51.39422,12.666591 -67.110723,1.096766 l -1.619055,-1.19188 -0.266064,0.847303 c -0.146335,0.466016 -0.629146,2.301892 -1.072915,4.079723 -1.433443,5.742679 -3.651037,11.895709 -5.442504,15.100989 l -0.658693,1.17853 2.221564,3.84077 2.221564,3.84077 2.871223,0.0293 c 3.694923,0.0377 4.797493,0.4205 11.452523,3.97611 l 5.14171,2.74708 0.99549,-0.8 c 0.97096,-0.78029 1.092,-0.80528 4.91245,-1.01421 12.29102,-0.67217 22.12027,-7.54094 25.34593,-17.71197 0.83008,-2.61737 2.51583,-3.05149 2.51583,-0.64788 0,7.92708 -11.60649,18.59065 -22.14807,20.34876 l -1.11369,0.18574 1.0346,1.30886 c 4.28083,5.41566 4.86434,14.19461 1.32259,19.89866 -0.4352,0.7009 -0.79127,1.30381 -0.79127,1.3398 0,0.84795 12.09851,-1.46861 16.4791,-3.15532 8.48305,-3.26634 17.0866,-11.86384 21.21826,-21.20336 1.07221,-2.42369 2.86039,-2.34474 2.22239,0.0981 -2.36596,9.05917 -11.66412,19.26082 -22.74083,24.95053 -2.53728,1.30331 -2.69635,1.42983 -2.09119,1.6632 5.31738,2.05055 9.95111,6.36266 11.1263,10.35406 l 0.3766,1.27908 2.12058,-2.24765 c 1.16632,-1.23621 2.80595,-3.26709 3.64363,-4.51306 z m -35.65371,-7.48232 c 6.7067,-3.32134 3.7921,-21.82024 -3.43482,-21.8007 -2.54554,0.007 -2.63639,0.10211 -1.59981,1.67693 3.32139,5.04606 3.0279,15.73867 -0.54867,19.98918 l -0.7539,0.89596 2.65838,-0.12801 c 1.87725,-0.0904 2.95822,-0.2765 3.67882,-0.63336 z m -12.17925,-1.41352 c 5.34699,-0.9353 5.30692,-0.90648 6.20872,-4.46451 1.66427,-6.56634 0.0792,-13.25523 -3.40336,-14.36172 -0.5243,-0.16659 -3.15593,-1.47156 -5.84807,-2.89995 -5.70424,-3.02653 -7.49472,-3.6917 -9.937286,-3.6917 h -1.751898 l 0.904062,1.65365 c 0.671368,1.22802 1.191012,1.81351 2.018924,2.27473 1.464477,0.81586 2.088418,1.72787 1.591628,2.32647 -0.394594,0.47546 -1.250809,0.46174 -12.007719,-0.19232 -14.449313,-0.87859 -13.272175,4.06627 1.709927,7.18296 4.37201,0.9095 4.792963,1.1977 3.806485,2.6061 -0.841254,1.20106 -7.195357,0.0208 -11.909073,-2.21214 -1.397952,-0.66222 -2.587741,-1.20403 -2.643975,-1.20403 -0.379995,0 1.156761,2.23887 2.116814,3.08394 1.504838,1.32461 5.708669,3.51285 8.831194,4.59695 5.39116,1.87174 3.157093,3.10816 -2.628108,1.4545 -2.496271,-0.71354 -2.415365,-0.50405 0.396641,1.02704 6.297328,3.42879 13.741574,4.35995 22.545094,2.82003 z M 79.030357,141.6968 c -2.405991,-2.57201 -3.269782,-5.02865 -3.336416,-9.48884 -0.03749,-2.50949 2.139928,-3.6844 7.142605,-3.85407 1.942932,-0.0659 3.532604,-0.16331 3.532604,-0.21648 0,-1.07862 -5.371411,-9.83128 -6.234792,-10.15954 -1.367467,-0.51991 -25.1786,-4.65164 -25.419436,-4.4108 -0.168147,0.16814 0.967413,2.43779 5.65959,11.31182 2.0435,3.86475 4.608142,8.80584 5.699204,10.98021 2.694344,5.36953 2.619788,5.31112 7.928579,6.21076 1.781302,0.30186 3.893574,0.71099 4.693938,0.90917 0.800365,0.19818 1.558157,0.37046 1.683982,0.38283 0.125826,0.0124 -0.48161,-0.7369 -1.349858,-1.66506 z m 13.367214,-17.15734 c -5.717087,-10.88642 -5.819557,-10.99702 -11.074038,-11.95325 -14.281913,-2.59907 -15.694466,-2.77669 -15.45968,-1.94403 0.549224,1.9478 0.599581,1.99272 2.603642,2.32234 17.491317,2.87694 15.505528,1.7713 20.539576,11.43599 l 2.170563,4.16719 h 1.667697 1.667696 z M 52.016827,113.00044 c -0.132322,-1.90787 2.00555,-3.70857 5.724195,-4.8214 1.572174,-0.47048 0.933789,-1.09008 -2.171511,-2.10759 -2.691295,-0.88186 -5.915132,-2.93763 -8.806531,-5.61573 -2.324368,-2.152899 -2.033805,-2.149684 -2.739088,-0.0303 -1.447918,4.351 0.868821,9.17802 6.094518,12.69819 2.106994,1.41933 2.005854,1.42589 1.898417,-0.12316 z m 127.337203,-4.66133 c 4.39185,-2.90395 8.13101,-4.48501 13.89292,-5.87446 5.61492,-1.35401 5.66104,-1.43056 3.60672,-5.985971 -4.14217,-9.185153 -13.98716,-18.674122 -23.96577,-23.099099 -3.06466,-1.359011 -2.85379,-1.789832 -1.71256,3.498823 2.52661,11.708709 3.34402,23.840657 2.33263,34.620517 l -0.17347,1.84893 1.94335,-1.79924 c 1.06885,-0.98959 2.90313,-2.43386 4.07618,-3.2095 z m -116.189714,3.16681 c -1.204707,-1.66655 -3.579171,-2.01118 -6.296206,-0.91384 -0.741562,0.2995 -0.567599,0.35954 2.645833,0.9132 4.499874,0.77531 4.210326,0.77526 3.650373,6.4e-4 z m 26.583759,-2.84812 c 1.826389,-4.48482 4.823158,-13.988361 4.823158,-15.295501 0,-0.149366 -0.803672,0.364457 -1.785938,1.141829 -7.85661,6.217772 -16.144794,7.851512 -23.349478,4.602554 -0.330994,-0.149262 -0.382269,0.05557 -0.308887,1.233948 0.143889,2.31057 -0.384355,4.46153 -1.750177,7.12655 -0.05593,0.10914 0.235644,0.19871 0.647953,0.19906 0.808242,6.7e-4 9.391798,1.42152 15.131828,2.5048 2.260773,0.42667 3.786153,0.85512 4.233333,1.18907 0.998831,0.74593 0.914686,0.84236 2.358208,-2.70231 z m -23.607308,-3.95919 c 2.050452,-6.077162 -2.777149,-16.853482 -6.855436,-15.30292 -1.034385,0.393272 -0.976297,0.806667 0.729613,5.192401 0.901508,2.317691 2.340961,6.098139 3.198786,8.401009 1.742606,4.67809 1.895332,4.76729 2.927037,1.70951 z m -6.812033,-0.52549 c 1.77114,-1.77114 -3.527946,-9.211745 -8.257571,-11.594699 -2.77849,-1.399903 -5.653221,-0.835985 -6.039505,1.184731 -0.627257,3.281284 12.134029,12.573008 14.297076,10.409968 z m 72.307846,-3.98198 c 0.013,-0.1819 0.10232,-1.71361 0.19844,-3.403794 l 0.17475,-3.073061 -3.70416,-0.175431 c -2.0373,-0.09649 -4.2638,-0.24621 -4.94778,-0.332717 -1.14941,-0.145372 -1.2551,-0.10974 -1.39524,0.470367 -0.21032,0.870666 -0.884,6.165489 -0.79715,6.265203 0.42366,0.486353 10.43709,0.724883 10.47114,0.249433 z m 9.36903,-0.290153 2.11666,-0.305163 -0.0976,-3.439583 c -0.11509,-4.056826 0.0669,-3.695506 -1.6701,-3.316384 -0.77402,0.168944 -2.69137,0.377221 -4.26077,0.462837 -1.5694,0.08562 -2.89375,0.226908 -2.94299,0.313981 -0.0493,0.08707 -0.17423,1.692413 -0.27773,3.56742 l -0.18819,3.409105 2.60201,-0.19353 c 1.43111,-0.10643 3.55452,-0.33084 4.71869,-0.498683 z m -21.49264,-3.523472 c 0.50655,-3.893144 0.5659,-3.674477 -1.05715,-3.894838 -0.69449,-0.09429 -2.20434,-0.408593 -3.35521,-0.698451 -2.51651,-0.633803 -2.18682,-0.950325 -2.9359,2.818654 -0.74317,3.739251 -0.64434,3.821261 5.95444,4.940937 0.3638,0.06173 0.72815,0.12845 0.80966,0.148267 0.0815,0.01982 0.34439,-1.471739 0.58416,-3.314569 z m 28.12353,2.281365 c 2.85987,-0.735365 5.40809,-1.582305 5.40553,-1.796607 -0.007,-0.558813 -0.80424,-6.495378 -0.88326,-6.574391 -0.0523,-0.05226 -1.55082,0.324007 -3.33015,0.836149 -1.77932,0.512143 -3.42142,0.931168 -3.6491,0.931168 -0.35135,0 -0.38846,0.270171 -0.24531,1.785938 0.0928,0.982265 0.16952,2.589609 0.17056,3.571874 0.001,0.982266 0.0985,1.785938 0.21663,1.785938 0.11811,0 1.15991,-0.243031 2.3151,-0.540069 z m -36.9527,-7.040242 0.21339,-1.09802 -1.87912,-0.727547 c -1.03352,-0.400151 -2.45652,-1.015375 -3.16221,-1.367165 -0.70569,-0.351789 -1.31784,-0.601847 -1.36033,-0.555683 -0.11703,0.127141 -1.46671,6.382146 -1.39112,6.447038 0.2269,0.194793 3.74986,1.889716 4.96057,2.386573 l 1.45521,0.597195 0.47511,-2.292186 c 0.26131,-1.260702 0.57113,-2.786294 0.6885,-3.390205 z m 47.29793,3.351129 2.79578,-1.318765 -0.14959,-0.864047 c -0.84454,-4.878001 -1.05671,-5.780129 -1.33046,-5.657057 -0.1651,0.07423 -1.35425,0.58771 -2.64255,1.141069 l -2.34237,1.006107 0.16527,1.984375 c 0.27374,3.286922 0.48056,5.027083 0.59745,5.027083 0.0609,0 1.36879,-0.593444 2.90647,-1.318765 z m -56.01616,-5.016161 0.74208,-3.21044 -0.71135,-0.367854 c -0.39124,-0.202319 -1.31871,-0.913925 -2.061044,-1.581346 l -1.349696,-1.213492 -0.303629,1.393092 c -0.166996,0.7662 -0.373819,2.20519 -0.459608,3.197754 l -0.155979,1.804662 1.678776,1.693832 c 0.92333,0.931608 1.72369,1.648922 1.77858,1.594033 0.0549,-0.05489 0.43373,-1.544498 0.84187,-3.310241 z m 62.44532,1.476293 c 3.3351,-2.260058 3.62992,-2.996117 2.89359,-7.224381 -0.35245,-2.023958 -0.008,-2.032663 -3.18246,0.08049 -2.3945,1.59408 -2.62537,1.81951 -2.50651,2.447396 0.072,0.380373 0.26185,1.584557 0.42187,2.675963 0.43554,2.970611 0.50761,3.21975 0.87025,3.008503 0.17764,-0.103477 0.8541,-0.548063 1.50326,-0.987971 z M 137.47184,90.72544 c 8.54944,-0.846907 18.21956,-4.205312 25.03976,-8.696242 3.03332,-1.997367 2.9517,-1.749752 1.91199,-5.800328 -4.40689,-17.168563 -10.043,-26.244475 -20.16406,-32.470438 -1.3531,-0.832355 -2.50482,-1.552536 -2.55939,-1.600402 -0.0546,-0.04787 -0.0992,-0.412218 -0.0992,-0.80967 0,-3.097392 7.75482,-2.309106 20.57135,2.091101 l 5.55625,1.907587 2.91042,0.0046 c 18.40176,0.02907 17.69889,-26.627969 -0.79541,-30.166513 -2.87062,-0.54924 -5.14858,-0.203276 -7.99731,1.214587 -2.75539,1.371411 -2.51264,1.38329 -13.79593,-0.675092 -30.06011,-5.483788 -43.22826,-5.673222 -73.562738,-1.058259 -3.268435,0.497246 -3.680225,0.429737 -5.687126,-0.932349 -5.330247,-3.617643 -15.556697,-0.10678 -18.626808,6.394807 -5.286501,11.195247 4.603017,21.809243 16.484074,17.691651 22.675184,-7.858489 35.329538,6.261599 34.436788,38.42554 l -0.16707,6.018943 1.25368,0.925003 c 7.75628,5.722814 22.28103,8.824219 35.29075,7.535476 z M 157.3304,79.566867 c -0.44923,-0.449227 -0.39366,-1.420629 0.11008,-1.924372 0.54668,-0.546679 0.94039,-0.411527 1.37037,0.470416 0.60354,1.237939 -0.55685,2.377559 -1.48045,1.453956 z m -3.47816,-8.793341 c -0.82968,-0.999707 0.22324,-3.008643 1.24243,-2.370498 0.98301,0.615497 0.62362,2.750089 -0.46302,2.750089 -0.25541,0 -0.60614,-0.170816 -0.77941,-0.379591 z m -2.59712,-9.981936 c -0.8011,-0.801098 -0.12898,-2.491877 0.91095,-2.291604 0.62665,0.120681 1.08304,1.42018 0.7086,2.017614 -0.35323,0.5636 -1.18861,0.704927 -1.61955,0.27399 z m -36.84014,-5.156787 c -5.87875,-0.892479 -11.34987,-4.129009 -9.23299,-5.461922 0.31588,-0.1989 0.99192,-0.02338 2.64583,0.686942 7.57411,3.252928 16.31976,2.295988 20.08178,-2.197326 1.65156,-1.97261 3.43993,-1.841311 3.43772,0.252392 -0.004,4.087273 -9.48621,7.850344 -16.93234,6.719914 z m 54.63646,-16.196141 c -5.40693,-2.462501 -5.93233,-12.678914 -0.8001,-15.557763 4.90777,-2.752935 10.25482,2.594618 9.14351,9.144378 -0.87559,5.160532 -4.6775,8.08297 -8.34341,6.413385 z m 5.25004,-9.060552 c 1.84457,-0.840446 1.47177,-3.674991 -0.48334,-3.674991 -1.7446,0 -2.58224,2.07623 -1.33915,3.319318 0.73345,0.733446 0.91542,0.76896 1.82249,0.355673 z M 54.981928,33.251556 c -4.270258,-2.858621 -4.219852,-11.308554 0.0788,-13.210052 3.567497,-1.578073 6.923274,1.379988 7.18318,6.331854 0.310481,5.915418 -3.420848,9.449553 -7.26198,6.878198 z m 4.92889,-7.342187 c 1.053058,-1.053058 0.568244,-2.910416 -0.759688,-2.910416 -1.524849,0 -2.264139,2.165749 -1.033524,3.027705 0.777164,0.544347 1.15638,0.519543 1.793212,-0.117289 z m 59.531242,-3.515713 c -1.38847,-0.69882 -0.90655,-2.939726 0.70005,-3.255158 1.73832,-0.341294 2.66903,1.930228 1.24865,3.047501 -0.80786,0.635463 -1.04788,0.66104 -1.9487,0.207657 z M 93.248316,19.55937 c -0.636987,-0.636987 -0.647337,-0.771879 -0.117289,-1.528629 0.563299,-0.804221 2.347366,-0.835719 2.768471,-0.04888 0.789939,1.476015 -1.431106,2.797582 -2.651182,1.577506 z"
       id="path1" /></g></svg>
